<?xml version="1.0" encoding="UTF-8"?>
<svg xmlns="http://www.w3.org/2000/svg" xmlns:xlink="http://www.w3.org/1999/xlink" width="2834.88" height="2834.88" viewBox="0 0 2834.88 2834.88">
<path fill-rule="evenodd" fill="rgb(0%, 0%, 0%)" fill-opacity="1" d="M 1527.21875 1865.191406 C 1509.019531 1863.777344 1493.378906 1862.472656 1482.980469 1861.835938 C 1275.769531 1849.546875 1242.539062 1847.550781 1182.800781 1829.601562 C 1179.578125 1828.628906 1176.359375 1827.578125 1173.089844 1826.71875 C 1144.878906 1856.039062 1113.871094 1910.988281 1101.160156 1942.332031 C 1094.171875 1982.550781 1095.53125 2019.777344 1105.300781 2054.089844 C 1115 2102.132812 1130.871094 2139.355469 1152.890625 2165.816406 C 1165.460938 2185.234375 1175.25 2201.988281 1182.300781 2216.078125 C 1188.761719 2228.921875 1187.980469 2230.28125 1173.730469 2230.503906 C 1130.261719 2231.113281 1105.160156 2228.753906 1098.421875 2223.402344 C 1088.878906 2206.148438 1085.910156 2195.246094 1089.429688 2190.644531 C 1094.761719 2180.628906 1093.261719 2172.917969 1084.960938 2167.535156 C 1072.289062 2170.894531 1066.070312 2167.203125 1066.320312 2156.496094 C 1068.761719 2094.945312 1057.03125 2048.179688 1031.148438 2016.144531 C 1020.109375 1998.945312 1008.851562 1979.167969 997.367188 1956.839844 C 993.871094 1946.269531 998.226562 1935.5625 1010.460938 1924.746094 C 1019.199219 1901.308594 1004.019531 1829.691406 984.164062 1782.871094 C 1003.140625 1761.761719 1023.441406 1740.730469 1045.078125 1719.789062 C 979.890625 1752.078125 913.738281 1848.105469 858.203125 1879.28125 C 767.472656 1930.292969 722.621094 1983.21875 709.890625 2015.78125 C 669.503906 2100.828125 648.367188 2158.773438 646.425781 2189.617188 C 645.648438 2215.605469 645.175781 2235.746094 645.039062 2250.003906 C 644.703125 2280.429688 619.714844 2268.753906 606.425781 2255.132812 C 587.480469 2241.238281 569.757812 2229.726562 553.308594 2220.628906 C 557.996094 2195.691406 566.84375 2181.796875 579.851562 2178.910156 C 585.371094 2171.421875 586.484375 2164.847656 583.210938 2159.214844 C 579.050781 2152.113281 570.449219 2149.285156 577.105469 2138.21875 C 624.539062 2073.199219 649.585938 2015.394531 652.277344 1964.742188 C 653.082031 1920.75 662.261719 1897.0625 679.878906 1893.707031 C 702.179688 1882.058594 719.152344 1865.414062 730.777344 1843.777344 C 737.046875 1764.78125 705.8125 1727.578125 703.398438 1650.03125 C 701.207031 1579.960938 714.800781 1519.570312 741.703125 1472.480469 C 596.328125 1457.941406 561.214844 1344.46875 591.199219 1237.261719 C 624.789062 1117.148438 727.808594 1085.839844 745.976562 1016.070312 C 732.050781 1042.980469 714.023438 1061.871094 691.859375 1072.800781 C 658.351562 1025.699219 774.964844 984.480469 764.867188 918.300781 C 824.144531 1008.140625 803.949219 1076.378906 714.023438 1101.480469 C 535.722656 1221.808594 588.425781 1466.980469 769.054688 1413.28125 C 812.492188 1400.359375 842.949219 1373.808594 897.261719 1365.410156 C 939.5625 1358.859375 987.824219 1362.519531 1041.21875 1377.808594 C 1164.289062 1400.910156 1281.410156 1392.121094 1392.550781 1351.449219 C 1394.710938 1350.179688 1396.878906 1348.898438 1399.039062 1347.628906 C 1383.121094 1369.398438 1372.441406 1393.089844 1366.980469 1418.75 C 1396.300781 1333.871094 1509.691406 1284.691406 1588.828125 1255.898438 C 1694.730469 1217.371094 1783.878906 1209.988281 1856.28125 1233.761719 C 1900.941406 1247.800781 1931.03125 1246.628906 1946.539062 1230.238281 C 1974.828125 1199.390625 2000.738281 1187.691406 2024.289062 1195.089844 C 2069.78125 1200.371094 2102.429688 1169.191406 2122.199219 1101.558594 C 2134.300781 1158.980469 2119.960938 1200.25 2079.179688 1225.410156 C 2125.449219 1255.558594 2156.628906 1287.320312 2172.710938 1320.691406 C 2186.890625 1355.390625 2211.929688 1386.269531 2247.800781 1413.371094 C 2290.050781 1450.398438 2292.378906 1475.859375 2254.820312 1489.761719 C 2225.058594 1522.398438 2195.488281 1526.339844 2166.109375 1501.628906 C 2152.660156 1495.96875 2139.429688 1494.941406 2126.359375 1498.550781 C 2094.441406 1530.808594 2055.488281 1542.648438 2009.558594 1534.140625 C 1985.929688 1534.75 1965.289062 1548.949219 1947.648438 1576.71875 C 1900.210938 1670.910156 1856.691406 1736.988281 1818.800781 1771.410156 C 1809.148438 1758.898438 1793.058594 1727.21875 1781.988281 1708.859375 C 1790.949219 1740.839844 1811.621094 1781.53125 1830.808594 1801.949219 C 1849.871094 1827 1872.25 1850.433594 1897.910156 1872.238281 C 1924.789062 1886.246094 1938.828125 1913.152344 1939.988281 1952.929688 C 1945.179688 1968.90625 1959.878906 2002.9375 1984.148438 2055.03125 C 1997.378906 2068.125 2005.308594 2101.992188 2009.921875 2137.246094 C 2014.46875 2172.003906 2015.828125 2208.144531 2015.851562 2227.117188 C 1996.441406 2226.59375 1969.78125 2207.730469 1935.859375 2170.5625 C 1935.28125 2156.636719 1939.191406 2147.09375 1947.589844 2141.933594 C 1948.890625 2135.109375 1948.730469 2128.511719 1947.058594 2122.101562 C 1938.519531 2123.074219 1932.671875 2116.195312 1929.480469 2101.410156 C 1923.679688 2050.480469 1907.808594 2007.488281 1881.878906 1972.425781 C 1869.148438 1958.863281 1854.671875 1946.214844 1838.441406 1934.480469 C 1821.488281 1910.902344 1767.070312 1890.046875 1692.960938 1863.832031 C 1685.628906 1868.546875 1668.019531 1870.519531 1645.738281 1870.878906 C 1624.800781 1905.355469 1590.660156 1946.382812 1579.480469 1979.613281 C 1568.878906 1998.585938 1553.351562 2013.0625 1532.910156 2023.078125 C 1499.339844 2056.835938 1485.640625 2102.90625 1460.320312 2142.210938 C 1457.789062 2165.929688 1458.371094 2186.039062 1462.089844 2202.570312 C 1465.199219 2216.441406 1458.039062 2223.847656 1444.449219 2218.796875 C 1406.171875 2200.296875 1388.230469 2185.566406 1390.660156 2174.636719 C 1392.21875 2166.179688 1393.71875 2159.023438 1395.160156 2153.167969 C 1397.378906 2144.015625 1399.101562 2146.097656 1406.640625 2142.378906 C 1412.46875 2139.523438 1414.269531 2133.476562 1412.050781 2124.292969 C 1400.601562 2111.617188 1409.78125 2098.414062 1418.738281 2088.179688 C 1456.988281 2044.492188 1480.730469 2010.097656 1489.96875 1984.964844 C 1494.019531 1965.769531 1504.75 1925.160156 1516.480469 1896.398438 L 1527.21875 1865.191406 "/>
<path fill-rule="evenodd" fill="rgb(27.098083%, 71.484375%, 28.588867%)" fill-opacity="1" d="M 1995.230469 700.421875 L 1742.398438 978.488281 L 1268.160156 952.660156 L 874.210938 1153.011719 L 848.6875 1102.820312 L 1256.121094 895.609375 L 1718.75 920.808594 L 1951.738281 664.558594 L 1901.871094 623.429688 L 2072.5 565.589844 L 2048.21875 744.109375 Z M 1950.359375 799.859375 L 1950.359375 1179.121094 C 1940.398438 1186.199219 1930.300781 1195.191406 1920.128906 1206.238281 C 1916.769531 1209.640625 1911.058594 1208.679688 1904.039062 1208.28125 C 1893.289062 1207.671875 1880.699219 1204.910156 1866.179688 1200.359375 C 1844.710938 1193.328125 1821.871094 1188.710938 1797.679688 1186.558594 L 1797.679688 967.78125 Z M 1727.878906 1011.441406 L 1727.878906 1186.898438 C 1681.371094 1191.121094 1630.738281 1203.019531 1576.011719 1222.929688 C 1575.738281 1223.03125 1575.46875 1223.128906 1575.199219 1223.230469 L 1575.199219 1003.121094 Z M 1505.398438 999.320312 L 1505.398438 1251.570312 C 1473.378906 1266.230469 1360.738281 1325.148438 1352.71875 1327.671875 L 1352.71875 991.011719 Z M 1282.921875 987.199219 L 1282.921875 1345.078125 C 1233.210938 1354.351562 1182.308594 1357.28125 1130.230469 1353.910156 L 1130.230469 1060.601562 L 1275.371094 986.789062 Z M 1060.441406 1096.101562 L 1060.441406 1345.738281 C 1056.441406 1345.070312 1052.441406 1344.359375 1048.429688 1343.621094 C 997.011719 1329.089844 949.902344 1324.601562 907.753906 1328.648438 L 907.753906 1173.75 L 1060.441406 1096.101562 "/>
</svg>
